<svg xmlns="http://www.w3.org/2000/svg" xmlns:xlink="http://www.w3.org/1999/xlink"><defs><style>
    .sprite-symbol-usage {display: none;}
    .sprite-symbol-usage:target {display: inline;}
  </style><symbol viewBox="0 0 35 35" id="search">
<title>search</title>
<path d="M13.877 20.439c3.623 0 6.563-2.939 6.563-6.563s-2.939-6.563-6.563-6.563-6.563 2.939-6.563 6.563 2.939 6.563 6.563 6.563zM22.627 20.439l7.246 7.246-2.188 2.188-7.246-7.246v-1.162l-0.41-0.41c-1.641 1.436-3.828 2.256-6.152 2.256-5.264 0-9.502-4.17-9.502-9.434s4.238-9.502 9.502-9.502 9.434 4.238 9.434 9.502c0 2.324-0.82 4.512-2.256 6.152l0.41 0.41h1.162z" />
</symbol><symbol viewBox="0 0 35 35" id="sms_failed">
<title>sms_failed</title>
<path d="M18.936 14.561v-5.811h-2.871v5.811h2.871zM18.936 20.439v-2.939h-2.871v2.939h2.871zM29.189 2.939c1.572 0 2.871 1.299 2.871 2.871v17.5c0 1.572-1.299 2.939-2.871 2.939h-20.439l-5.811 5.811v-26.25c0-1.572 1.299-2.871 2.871-2.871h23.379z" />
</symbol><symbol viewBox="0 0 35 35" id="star_border">
<title>star_border</title>
<path d="M17.5 22.49l5.469 3.281-1.436-6.221 4.854-4.238-6.426-0.547-2.461-5.879-2.461 5.879-6.426 0.547 4.854 4.238-1.436 6.221zM32.061 13.467l-7.93 6.904 2.393 10.254-9.023-5.469-9.023 5.469 2.393-10.254-7.93-6.904 10.459-0.889 4.102-9.639 4.102 9.639z" />
</symbol></defs><use id="search-usage" xlink:href="#search" class="sprite-symbol-usage" /><use id="sms_failed-usage" xlink:href="#sms_failed" class="sprite-symbol-usage" /><use id="star_border-usage" xlink:href="#star_border" class="sprite-symbol-usage" /></svg>