<!-- Generated by IcoMoon.io -->
<svg version="1.1" xmlns="http://www.w3.org/2000/svg" width="35" height="35" viewBox="0 0 35 35">
<title>search</title>
<path d="M13.877 20.439c3.623 0 6.563-2.939 6.563-6.563s-2.939-6.563-6.563-6.563-6.563 2.939-6.563 6.563 2.939 6.563 6.563 6.563zM22.627 20.439l7.246 7.246-2.188 2.188-7.246-7.246v-1.162l-0.41-0.41c-1.641 1.436-3.828 2.256-6.152 2.256-5.264 0-9.502-4.17-9.502-9.434s4.238-9.502 9.502-9.502 9.434 4.238 9.434 9.502c0 2.324-0.82 4.512-2.256 6.152l0.41 0.41h1.162z"></path>
</svg>
